<?xml version="1.0" encoding="UTF-8" standalone="no"?>
<!-- Created with Inkscape (http://www.inkscape.org/) -->

<svg
   xmlns:dc="http://purl.org/dc/elements/1.1/"
   xmlns:cc="http://creativecommons.org/ns#"
   xmlns:rdf="http://www.w3.org/1999/02/22-rdf-syntax-ns#"
   xmlns:svg="http://www.w3.org/2000/svg"
   xmlns="http://www.w3.org/2000/svg"
   version="1.1"
   width="10"
   height="10"
   id="svg3035">
  <defs
     id="defs3037" />
  <metadata
     id="metadata3040">
    <rdf:RDF>
      <cc:Work
         rdf:about="">
        <dc:format>image/svg+xml</dc:format>
        <dc:type
           rdf:resource="http://purl.org/dc/dcmitype/StillImage" />
        <dc:title></dc:title>
      </cc:Work>
    </rdf:RDF>
  </metadata>
  <g
     transform="translate(0,-1042.3622)"
     id="layer1">
    <path
       d="m 7.4321713,1052.2806 -0.4700187,-0.065 -0.017002,-0.1187 -0.017003,-0.1187 0.1721984,-0.1751 c 0.094709,-0.096 0.2828308,-0.2411 0.4180482,-0.3219 0.1352173,-0.081 0.3826417,-0.2363 0.5498326,-0.3455 l 0.3039823,-0.1987 0.6462757,-0.6691 0.6462758,-0.6691 0.069244,0 c 0.038084,7e-4 0.113513,0.045 0.1676198,0.1 l 0.098376,0.098 -0.024574,0.3864 -0.024575,0.3863 -0.1724211,0.4113 -0.1724216,0.4112 -0.3708378,0.3703 c -0.2039605,0.2037 -0.4551267,0.4217 -0.5581472,0.4845 l -0.1873095,0.1142 -0.2937617,-0.01 c -0.161569,0 -0.5052702,-0.037 -0.7637805,-0.073 z m -1.0625273,-0.6674 c -0.051213,-0.057 -0.2072089,-0.2985 -0.3466588,-0.5376 l -0.2535451,-0.4347 -0.4008308,-0.4373 -0.4008314,-0.4374 -0.2089815,-0.1066 c -0.1149396,-0.059 -0.3320865,-0.2082 -0.4825489,-0.3324 l -0.2735673,-0.2257 -0.3472769,-0.1375 -0.3472769,-0.1374 -0.3300806,-0.3097 -0.3300813,-0.3096 -0.2811282,-0.075 c -0.1546203,-0.042 -0.3604438,-0.1224 -0.4573852,-0.1798 l -0.2496974,-0.1095 -0.4248999,-0.1217 -0.38293309,-0.1951 -0.23186847,-0.1162 c -0.0851357,-0.043 -0.24220124,-0.073 -0.31894649,-0.1687 l -0.13953681,-0.1732 0,-0.1432 0,-0.1432 0.0709006,-0.085 0.0709006,-0.085 0.25128436,-0.038 0.25128494,-0.038 0.22861776,0.1149 c 0.12574,0.063 0.4097118,0.1744 0.6310489,0.2471 l 0.4024306,0.1324 0.0801,-0.08 0.080101,-0.08 0.016864,-0.2024 0.016864,-0.2024 -0.176257,-0.1106 c -0.096941,-0.061 -0.3345782,-0.2029 -0.5280814,-0.3158 l -0.3518237,-0.2052 -0.39782388,-0.095 -0.39782386,-0.096 -0.20507799,-0.169 L 0,1045.3034 l 0,-0.1383 0,-0.1384 0.1548042,-0.1217 0.15480419,-0.1218 0.18647818,0 0.18647817,0 0.34848776,0.2099 c 0.4286436,0.2581 1.0575404,0.5872 1.2770732,0.6684 l 0.1636652,0.06 0.035052,-0.091 0.035052,-0.091 -0.1987168,-0.2069 c -0.1092941,-0.1138 -0.2912518,-0.2575 -0.4043501,-0.3195 -0.2777106,-0.1521 -0.5228935,-0.3429 -0.6947012,-0.5406 l -0.1426125,-0.1642 -0.21293084,-0.1086 c -0.11711222,-0.06 -0.25583707,-0.1578 -0.30827824,-0.2178 l -0.095348,-0.1091 -0.0299337,-0.2817 -0.0299343,-0.2818 0.0908346,-0.091 0.0908346,-0.091 0.17279358,0.035 0.17279299,0.034 0.41582561,0.3025 0.4158262,0.3024 0.5033701,0.2505 0.5033701,0.2505 0.2619302,0.2698 0.2619303,0.2699 0.2227766,0 0.2227765,0 0,-0.1071 0,-0.107 -0.1615689,-0.2118 c -0.1648832,-0.2161 -0.5501687,-0.5701 -1.0007974,-0.9196 -0.1384376,-0.1073 -0.3301171,-0.2736 -0.4259545,-0.3694 l -0.1742495,-0.1743 0,-0.1332 0,-0.1333 0.1028166,-0.09 c 0.056549,-0.049 0.1632158,-0.121 0.2370364,-0.1592 l 0.1342203,-0.069 0.3357984,0.1882 0.335799,0.1883 1.0528514,1.056 1.0528514,1.056 0.2984525,0.139 0.2984525,0.139 0.1695745,6e-4 0.1695745,6e-4 -0.029527,-0.5645 -0.029526,-0.5645 0.056191,-0.2214 0.056191,-0.2214 0.1676504,-0.1835 0.167651,-0.1836 0.1227037,0 c 0.067487,0 0.2131024,0.038 0.3235897,0.084 l 0.200886,0.084 0.086564,0.3126 0.086564,0.3127 0.039561,0.7298 0.039561,0.7299 0.1473292,0.4452 0.1473297,0.4452 -0.031673,0.6348 -0.031673,0.6349 0.1269773,0.217 0.1269768,0.2171 0.5741396,0.5611 0.5741397,0.5611 0,0.1406 0,0.1406 -0.3097641,0.3 c -0.1703707,0.165 -0.5603393,0.501 -0.8665971,0.7467 -0.3062583,0.2456 -0.7279198,0.621 -0.9370258,0.8342 l -0.3801929,0.3877 -0.075138,0 c -0.041326,0 -0.1170387,-0.046 -0.1682514,-0.1028 z"
       id="path3091"
       style="fill:#000000" />
  </g>
</svg>
