<?xml version="1.0" encoding="UTF-8" standalone="no"?>
<!-- Created with Inkscape (http://www.inkscape.org/) -->

<svg
   xmlns:dc="http://purl.org/dc/elements/1.1/"
   xmlns:cc="http://creativecommons.org/ns#"
   xmlns:rdf="http://www.w3.org/1999/02/22-rdf-syntax-ns#"
   xmlns:svg="http://www.w3.org/2000/svg"
   xmlns="http://www.w3.org/2000/svg"
   version="1.1"
   width="10"
   height="10"
   id="svg3093">
  <defs
     id="defs3095" />
  <metadata
     id="metadata3098">
    <rdf:RDF>
      <cc:Work
         rdf:about="">
        <dc:format>image/svg+xml</dc:format>
        <dc:type
           rdf:resource="http://purl.org/dc/dcmitype/StillImage" />
        <dc:title></dc:title>
      </cc:Work>
    </rdf:RDF>
  </metadata>
  <g
     transform="translate(0,-1042.3622)"
     id="layer1">
    <path
       d="m 4.3514653,1051.2932 c -0.1120527,-0.036 -0.4695868,-0.099 -0.7945205,-0.1397 -0.3249331,-0.041 -0.6255016,-0.084 -0.6679304,-0.097 -0.097531,-0.028 -0.1197884,-0.123 -0.1596346,-0.6792 l -0.032228,-0.4499 0.2747119,-0.1938 c 0.2703562,-0.1907 0.61046,-0.4472 1.100737,-0.8301 0.1369034,-0.1069 0.415967,-0.3578 0.6201424,-0.5575 l 0.3712271,-0.3631 0.2830838,0.085 c 0.3432142,0.1026 0.6554228,0.1083 0.7637342,0.014 0.3055401,-0.1863 0.3897818,-0.1827 0.5668174,0.083 0.085576,0.095 0.1525559,0.2435 0.2407378,0.2971 0.082237,0.05 0.2852801,0.2536 0.4512077,0.4524 0.2919339,0.3497 0.3009634,0.3683 0.2793296,0.5763 -0.054918,0.5278 -0.1305164,0.9136 -0.192446,0.9821 -0.036945,0.041 -0.08888,0.1313 -0.115412,0.2011 -0.089537,0.2355 -0.3805052,0.3946 -0.834991,0.4565 -0.2246913,0.031 -0.566265,0.089 -0.759053,0.1307 -0.4682773,0.1002 -1.135745,0.1154 -1.3955134,0.032 z m -1.7324397,-2.0611 c -0.053276,-0.068 -0.097118,-0.1676 -0.097428,-0.222 -3.271e-4,-0.054 -0.052888,-0.1904 -0.1168412,-0.3022 -0.063953,-0.1119 -0.1162781,-0.2329 -0.1162781,-0.2688 0,-0.081 -0.1729073,-0.083 -0.3146174,0 -0.057367,0.032 -0.1649588,0.1536 -0.2390932,0.2705 -0.082214,0.1297 -0.1957039,0.2378 -0.2909529,0.2773 -0.085889,0.036 -0.1943509,0.1028 -0.2410267,0.1495 -0.070392,0.07 -0.1026151,0.075 -0.1889505,0.03 -0.26406629,-0.1401 -0.88032064,-0.6698 -0.96648217,-0.8308 -0.07029917,-0.1313 -0.06033729,-0.5476 0.0166681,-0.6966 0.0360988,-0.07 0.14651377,-0.1629 0.2453666,-0.207 0.26037557,-0.1161 0.39630493,-0.3811 0.43971052,-0.8573 0.0300371,-0.3296 0.0562679,-0.4106 0.19703686,-0.6086 0.0893129,-0.1257 0.19713029,-0.297 0.23959409,-0.3807 0.1244813,-0.2453 0.8153827,-0.6136 1.3363128,-0.7124 0.2351117,-0.045 0.277942,-0.037 1.0436372,0.1965 0.098812,0.03 0.2243426,0.1153 0.280419,0.1904 0.1997363,0.2673 0.601666,0.6818 0.7831573,0.8076 0.2201565,0.1525 0.2730935,0.3085 0.1661833,0.4894 -0.051335,0.087 -0.1690264,0.2647 -0.1712884,0.4786 -0.00226,0.2139 0.08442,0.5063 0.1346313,0.5255 0.065937,0.063 0.06757,0.121 0.061134,0.2174 -0.05061,0.056 -0.065026,0.097 -0.1856368,0.1828 -0.1206111,0.086 -0.2474866,0.1946 -0.2819454,0.2419 -0.034459,0.047 -0.1711631,0.1715 -0.3037873,0.2759 -0.1326241,0.1043 -0.3665463,0.3084 -0.5198276,0.4534 -0.3720271,0.352 -0.4881098,0.4266 -0.6643289,0.4269 -0.1049916,0 -0.1768822,-0.036 -0.2453666,-0.1228 z m 5.8325418,-0.4985 c -0.075149,-0.082 -0.1572791,-0.2231 -0.1825121,-0.3131 -0.057798,-0.2061 -0.3589756,-0.6197 -0.43326,-0.5951 -0.055521,0.018 -0.098564,0.1268 -0.1488192,0.3747 -0.015502,0.077 -0.073458,0.1516 -0.1405474,0.1821 -0.1405568,0.064 -0.2138733,0.012 -0.378597,-0.2691 -0.081201,-0.1386 -0.1721118,-0.2205 -0.3026548,-0.2727 -0.1026249,-0.041 -0.1976701,-0.1036 -0.2112111,-0.1388 -0.013541,-0.035 0.068853,-0.156 0.1118887,-0.2875 0.078078,-0.2387 0.1023721,-0.3189 -2.799e-4,-0.7421 -0.044971,-0.1854 -0.1173905,-0.2635 -0.3166827,-0.4212 -0.1848069,-0.1463 -0.3002627,-0.2065 -0.4238629,-0.2178 -0.1236002,-0.011 -0.2553448,-0.02 -0.4727291,0.029 l -0.3812071,0.087 -0.072721,-0.1146 c -0.1549567,-0.244 -0.7596419,-0.7706 -1.1093954,-0.966 -0.1477621,-0.083 -0.237399,-0.1729 -0.2851422,-0.2871 -0.065968,-0.1579 -0.063121,-0.18 0.0541,-0.419 0.2017835,-0.4114 0.4315966,-0.649 0.8081974,-0.8355 0.312298,-0.1547 0.3598701,-0.1652 0.6236102,-0.1377 0.3313767,0.035 0.8875434,0.3015 0.9690939,0.465 0.1062877,0.2131 0.1957179,0.4681 0.1957179,0.558 0,0.076 0.019151,0.087 0.1051572,0.057 0.057836,-0.02 0.2628927,-0.044 0.4556808,-0.054 0.3332915,-0.017 0.3689047,-0.01 0.7244157,0.1701 1.0704751,0.5393 1.3494037,0.8221 1.75486,1.7791 0.081681,0.1928 0.1859178,0.3926 0.2316378,0.444 0.1490576,0.1673 0.3736947,0.6709 0.3736947,0.8374 0,0.1408 -0.054831,0.2198 -0.4089443,0.589 -0.4274296,0.4455 -0.5259618,0.5173 -0.8227404,0.5988 -0.1707102,0.047 -0.1872475,0.042 -0.3167477,-0.1 z m -3.1051205,-0.9156 c -0.256431,-0.1165 -0.4874616,-0.4622 -0.4874616,-0.7295 0,-0.5558 0.7155413,-1.0061 1.2004301,-0.7554 0.1857533,0.096 0.431276,0.3414 0.4861554,0.4857 0.1269817,0.334 -0.02761,0.7353 -0.3659257,0.9498 -0.259045,0.1643 -0.5431075,0.1811 -0.8331982,0.049 z"
       id="path3123"
       style="fill:#000000" />
  </g>
</svg>
