<?xml version="1.0" encoding="UTF-8" standalone="no"?>
<!-- Created with Inkscape (http://www.inkscape.org/) -->

<svg
   xmlns:dc="http://purl.org/dc/elements/1.1/"
   xmlns:cc="http://creativecommons.org/ns#"
   xmlns:rdf="http://www.w3.org/1999/02/22-rdf-syntax-ns#"
   xmlns:svg="http://www.w3.org/2000/svg"
   xmlns="http://www.w3.org/2000/svg"
   version="1.1"
   width="10"
   height="10"
   id="svg4553">
  <defs
     id="defs4555" />
  <metadata
     id="metadata4558">
    <rdf:RDF>
      <cc:Work
         rdf:about="">
        <dc:format>image/svg+xml</dc:format>
        <dc:type
           rdf:resource="http://purl.org/dc/dcmitype/StillImage" />
        <dc:title></dc:title>
      </cc:Work>
    </rdf:RDF>
  </metadata>
  <g
     transform="translate(0,-1042.3622)"
     id="layer1">
    <rect
       width="9.9653234"
       height="0.96532333"
       ry="0.1"
       x="0.017338324"
       y="1049.3884"
       id="rect4586"
       style="fill:#000000;stroke:#000000;stroke-width:0.03467665;stroke-miterlimit:4;stroke-opacity:1;stroke-dasharray:none" />
    <rect
       width="1"
       height="1"
       rx="0.25"
       ry="0.25"
       x="4.5124998"
       y="1049.8586"
       id="rect4588"
       style="fill:#000000;fill-opacity:1;stroke:#000000;stroke-width:0.025;stroke-miterlimit:4;stroke-opacity:1;stroke-dasharray:none" />
    <g
       transform="matrix(0.98006646,0,0,0.98006646,0.09966769,20.929671)"
       id="g5152">
      <path
         d="m 0.09830518,1043.9032 3.90681132,0 c 0,0 0.44573,-0.037 0.7350699,0.2451 0.2781489,0.2714 0.2450234,0.7354 0.2450234,0.7354 l 0,4.8889 -4.64152751,10e-5 c 0.001041,9e-4 -0.0951196,0 -0.17177509,-0.074 -0.0672868,-0.064 -0.07360202,-0.1719 -0.07360202,-0.1719 z"
         id="rect4561"
         style="fill:#ffffff;stroke:#000000;stroke-width:0.40000001;stroke-miterlimit:4;stroke-opacity:1;stroke-dasharray:none" />
      <path
         d="m 9.9016943,1043.9032 -3.9068111,0 c 0,0 -0.4457299,-0.037 -0.7350696,0.2451 -0.2781493,0.2714 -0.2450232,0.7354 -0.2450232,0.7354 l 0,4.8889 4.6415268,10e-5 c -0.00104,9e-4 0.09512,0 0.1717746,-0.074 0.067288,-0.064 0.073603,-0.1719 0.073603,-0.1719 z"
         id="rect4561-4"
         style="fill:#ffffff;stroke:#000000;stroke-width:0.40000001;stroke-miterlimit:4;stroke-opacity:1;stroke-dasharray:none" />
    </g>
  </g>
</svg>
