<?xml version="1.0" encoding="UTF-8" standalone="no"?>
<!-- Created with Inkscape (http://www.inkscape.org/) -->

<svg
   xmlns:dc="http://purl.org/dc/elements/1.1/"
   xmlns:cc="http://creativecommons.org/ns#"
   xmlns:rdf="http://www.w3.org/1999/02/22-rdf-syntax-ns#"
   xmlns:svg="http://www.w3.org/2000/svg"
   xmlns="http://www.w3.org/2000/svg"
   version="1.1"
   width="10"
   height="10"
   id="svg5156">
  <defs
     id="defs5158" />
  <metadata
     id="metadata5161">
    <rdf:RDF>
      <cc:Work
         rdf:about="">
        <dc:format>image/svg+xml</dc:format>
        <dc:type
           rdf:resource="http://purl.org/dc/dcmitype/StillImage" />
        <dc:title></dc:title>
      </cc:Work>
    </rdf:RDF>
  </metadata>
  <g
     transform="translate(0,-1042.3622)"
     id="layer1">
    <g
       id="g5796">
      <path
         d="m 2.8649999,1043.1008 4.6591907,0 c 0,0 0.5315689,-0.046 0.8766308,0.3088 0.3317148,0.3417 0.2922102,0.9258 0.2922102,0.9258 l 0,6.1558"
         id="rect4561-4"
         style="fill:#ffffff;stroke:#000000;stroke-width:0.49012178;stroke-miterlimit:4;stroke-opacity:1;stroke-dasharray:none" />
      <rect
         width="0.53720683"
         height="2.5497289"
         x="740.75842"
         y="730.0694"
         transform="matrix(0.70201627,0.71216091,-0.70836807,0.70584324,0,0)"
         id="rect5196"
         style="fill:#000000;fill-opacity:1;stroke:none" />
      <path
         d="m 1.290633,1044.8856 4.4962151,0 c 0,0 0.5129754,-0.042 0.8459667,0.282 0.320112,0.3124 0.281989,0.8463 0.281989,0.8463 l 0,5.6265 -5.3417746,10e-5 c 0.0012,0 -0.1094699,0 -0.1976902,-0.085 -0.077438,-0.074 -0.084706,-0.1978 -0.084706,-0.1978 z"
         id="rect4561"
         style="fill:#000000;stroke:#000000;stroke-width:0.46034628;stroke-miterlimit:4;stroke-opacity:1;stroke-dasharray:none" />
    </g>
  </g>
</svg>
