<?xml version="1.0" encoding="UTF-8" standalone="no"?>
<!-- Created with Inkscape (http://www.inkscape.org/) -->

<svg
   xmlns:dc="http://purl.org/dc/elements/1.1/"
   xmlns:cc="http://creativecommons.org/ns#"
   xmlns:rdf="http://www.w3.org/1999/02/22-rdf-syntax-ns#"
   xmlns:svg="http://www.w3.org/2000/svg"
   xmlns="http://www.w3.org/2000/svg"
   version="1.1"
   width="10"
   height="10"
   id="svg2">
  <defs
     id="defs4" />
  <metadata
     id="metadata7">
    <rdf:RDF>
      <cc:Work
         rdf:about="">
        <dc:format>image/svg+xml</dc:format>
        <dc:type
           rdf:resource="http://purl.org/dc/dcmitype/StillImage" />
        <dc:title></dc:title>
      </cc:Work>
    </rdf:RDF>
  </metadata>
  <g
     transform="translate(0,-1042.3622)"
     id="layer1">
    <path
       d="m 3.900847,1052.318 c -0.1057364,-0.042 -0.119682,-0.1053 -0.1257585,-0.5756 -0.00692,-0.5357 -0.08138,-1.1281 -0.1570229,-1.2493 -0.088027,-0.1411 -0.4663988,-0.1393 -0.8927506,0 -0.2684963,0.09 -0.4523836,0.1227 -0.5133428,0.09 -0.052242,-0.028 -0.1681608,-0.066 -0.2575987,-0.085 -0.1816503,-0.038 -0.1895254,-0.059 -0.3122436,-0.8054 -0.082746,-0.5036 -0.3341097,-1.3211 -0.4486667,-1.4591 -0.033145,-0.04 -0.1399378,-0.089 -0.23731683,-0.108 -0.20737239,-0.041 -0.21760103,-0.1126 -0.0884556,-0.6153 0.0487279,-0.1896 0.13334343,-0.3715 0.18803353,-0.4042 0.3028844,-0.1811 0.3242188,-0.2417 0.2820424,-0.8004 -0.038139,-0.5052 -0.032561,-0.5416 0.1249831,-0.8156 0.090697,-0.1577 0.2102824,-0.3403 0.2657456,-0.4057 0.1847066,-0.2179 0.3637187,-0.5782 0.4479887,-0.9017 0.045843,-0.176 0.1181052,-0.3581 0.1605824,-0.4046 0.042477,-0.047 0.197642,-0.233 0.3448104,-0.4144 0.1605812,-0.1978 0.3317507,-0.3445 0.4280595,-0.3668 0.088265,-0.02 0.2061326,-0.087 0.2619293,-0.1492 0.055797,-0.062 0.13653,-0.1121 0.179408,-0.1121 0.042878,0 0.1658305,-0.038 0.2732283,-0.084 0.5622426,-0.2427 0.8967644,-0.2946 1.8602039,-0.2888 0.9403831,0.01 0.9555192,0.01 1.3081632,0.1886 0.1962245,0.1007 0.4187739,0.1834 0.4945541,0.1838 0.075781,4e-4 0.2251901,0.088 0.3320224,0.194 0.1068318,0.1063 0.3048181,0.2659 0.4399686,0.3548 0.2887907,0.1898 0.4915458,0.4909 0.7026828,1.0434 0.1884462,0.4932 0.2510608,0.8546 0.254801,1.4708 0.0035,0.5766 -0.073573,0.9392 -0.2490136,1.1714 -0.2824122,0.3738 -0.6082215,0.7144 -0.7569579,0.7913 -0.1926157,0.1 -0.3222612,0.4624 -0.278675,0.7797 0.065111,0.4741 0.162107,0.8066 0.3078554,1.0553 0.086557,0.1477 0.1501182,0.3484 0.1501182,0.4739 l 0,0.2178 -0.3203275,0.023 c -0.1883029,0.013 -0.3199731,0.034 -0.3982583,0.044 -0.1080715,0.014 -0.2190876,0.022 -0.5203177,0.085 -0.3916522,0.083 -0.3788155,0.076 -0.512199,0.1787 -0.079305,0.061 -0.2507082,0.1931 -0.3873625,0.3064 -0.1436262,0.119 -0.3196211,0.3004 -0.4225224,0.4805 -0.090771,0.159 -0.3120742,0.4234 -0.4917849,0.5876 -0.2812444,0.2571 -0.3709035,0.304 -0.6438285,0.3367 -0.4012108,0.048 -0.6416922,0.043 -0.7927773,-0.016 z"
       id="path3033"
       style="fill:#000000" />
  </g>
</svg>
