<?xml version="1.0" encoding="UTF-8" standalone="no"?>
<!-- Created with Inkscape (http://www.inkscape.org/) -->

<svg
   xmlns:dc="http://purl.org/dc/elements/1.1/"
   xmlns:cc="http://creativecommons.org/ns#"
   xmlns:rdf="http://www.w3.org/1999/02/22-rdf-syntax-ns#"
   xmlns:svg="http://www.w3.org/2000/svg"
   xmlns="http://www.w3.org/2000/svg"
   version="1.1"
   width="10"
   height="10"
   id="svg3125">
  <defs
     id="defs3127" />
  <metadata
     id="metadata3130">
    <rdf:RDF>
      <cc:Work
         rdf:about="">
        <dc:format>image/svg+xml</dc:format>
        <dc:type
           rdf:resource="http://purl.org/dc/dcmitype/StillImage" />
        <dc:title></dc:title>
      </cc:Work>
    </rdf:RDF>
  </metadata>
  <g
     transform="translate(0,-1042.3622)"
     id="layer1">
    <path
       d="m 2.9740216,1052.1559 c -0.2993017,0.031 -0.4318675,0 -0.6836057,0 -0.193871,0 -0.4940752,-0.028 -0.66712,-0.062 -0.2755585,-0.054 -0.74961411,-0.107 -1.05723873,-0.1174 -0.0550541,0 -0.18279524,-0.081 -0.28386971,-0.175 l -0.18377186,-0.1698 -0.06767542,-0.8689 0.07245748,-0.8026 0.18159549,-0.3316 c 0.30284081,-0.5531 0.42735302,-1.2493 0.33922813,-1.7996 -0.0881255,-0.5503 -0.0822973,-0.9 -0.18000264,-1.5122 -0.0900513,-0.5642 -0.0467201,-1.246 0.0877172,-1.3802 0.0884818,-0.088 0.14580104,-0.041 0.56707646,-0.033 0.4386221,0.01 0.4914163,0.055 0.8938795,-0.054 0.4024626,-0.1094 0.6390246,-0.1376 0.8120694,-0.1714 0.1730448,-0.034 0.6475017,-0.072 1.054348,-0.084 0.7333287,-0.022 0.7420365,-0.021 1.0075788,0.1478 0.1600415,0.1015 0.2678577,0.2133 0.2678577,0.2777 0,0.059 -0.1223008,0.2989 -0.2717788,0.5325 -0.2432926,0.3803 -0.2736455,0.4656 -0.2895822,0.8133 -0.032282,0.7044 0.2763727,1.4748 0.7514961,1.9765 0.2463516,0.2601 0.588634,0.4917 1.1531953,0.5846 0.5645613,0.093 0.8946692,0.1962 1.074239,0.2449 0.2792664,0.076 0.5681279,0.09 1.1018543,0.2994 0.8675669,0.3401 0.9746015,0.5833 1.1366436,0.9438 0.3678,0.8183 0.1830855,1.2886 -0.697855,1.7767 l -0.3075644,0.1704 -1.2558229,0 c -0.6907026,-7e-4 -1.5055272,-0.013 -1.8107213,-0.027 -0.3051942,-0.014 -0.6082739,-0.01 -0.8744482,-0.097 -0.2661743,-0.09 -1.5708784,-0.1118 -1.8701796,-0.081 z m -2.56446099,-7.5822 c -0.10134082,-0.069 -0.17344257,-0.4921 -0.1780015,-1.0439 -0.003224,-0.3905 0.009843,-0.4367 0.17779998,-0.628 0.20705307,-0.2358 0.31959232,-0.2509 1.04533591,-0.1406 l 0.4380777,0.067 0.5073776,-0.2469 c 0.7292476,-0.3549 0.8404644,-0.3179 1.239163,0.4114 0.2182883,0.3993 0.278451,0.8099 0.1530159,1.0442 -0.079193,0.148 -0.5299076,0.2507 -1.9287617,0.4393 -0.97247066,0.1311 -1.36647428,0.1577 -1.45400689,0.098 z"
       id="path3155"
       style="fill:#000000" />
  </g>
</svg>
