<?xml version="1.0" encoding="UTF-8" standalone="no"?>
<!-- Created with Inkscape (http://www.inkscape.org/) -->

<svg
   xmlns:dc="http://purl.org/dc/elements/1.1/"
   xmlns:cc="http://creativecommons.org/ns#"
   xmlns:rdf="http://www.w3.org/1999/02/22-rdf-syntax-ns#"
   xmlns:svg="http://www.w3.org/2000/svg"
   xmlns="http://www.w3.org/2000/svg"
   version="1.1"
   width="10"
   height="10"
   id="svg2">
  <defs
     id="defs4" />
  <metadata
     id="metadata7">
    <rdf:RDF>
      <cc:Work
         rdf:about="">
        <dc:format>image/svg+xml</dc:format>
        <dc:type
           rdf:resource="http://purl.org/dc/dcmitype/StillImage" />
        <dc:title></dc:title>
      </cc:Work>
    </rdf:RDF>
  </metadata>
  <g
     transform="translate(0,-1042.3622)"
     id="layer1">
    <g
       transform="matrix(0.15625806,0,0,0.15625806,-20.001286,1002.5712)"
       id="g2996">
      <path
         d="m 128.99998,286.6479 0,-32 31,0 31,0 0,32 0,32 -31,0 -31,0 0,-32 z"
         id="path3036"
         style="fill:#fdfdfd" />
      <path
         d="m 134.99998,312.00782 c 0,-1.98949 2.33952,-5.02131 9.49377,-12.30313 l 9.49377,-9.66306 -3.81399,-3.72426 c -3.80302,-3.71356 -3.81926,-3.71843 -5.64876,-1.69687 -1.72128,1.902 -6.52479,2.87345 -6.52479,1.31956 0,-0.38931 1.59636,-2.34265 3.54746,-4.34076 l 3.54745,-3.63293 -4.05033,-3.65923 c -2.22769,-2.01258 -4.4509,-3.65924 -4.94047,-3.65924 -1.26175,0 -2.1482,-2.72152 -1.46574,-4.5 1.09764,-2.86039 4.54467,-1.51272 9.10538,3.55988 l 4.54927,5.05989 3.66648,-3.58023 c 2.01657,-1.96912 3.97564,-3.27107 4.35349,-2.89321 1.29384,1.29384 0.68661,3.72519 -1.51589,6.06965 l -2.20291,2.34488 3.70291,3.7029 3.7029,3.70291 3.69221,-3.69221 c 3.50764,-3.50765 3.60762,-3.78567 2,-5.56207 -1.71278,-1.8926 -2.36804,-7.21239 -0.88838,-7.21239 0.44211,0 2.33019,1.5748 4.19574,3.49956 l 3.39191,3.49956 2.9049,-2.74956 c 1.5977,-1.51226 3.30983,-3.79193 3.80475,-5.06594 0.68969,-1.7754 1.53997,-2.24248 3.6408,-2 4.54831,0.52499 3.97076,3.37009 -1.72335,8.48958 l -5.13835,4.61982 3.55989,3.64565 c 1.95793,2.00511 3.55988,3.96418 3.55988,4.35349 0,1.59118 -5.81317,0.57177 -7.52479,-1.31956 -1.82941,-2.02147 -1.84598,-2.01645 -5.66972,1.71733 l -3.83494,3.74473 9.51472,9.55056 c 7.36748,7.39523 9.51473,10.16713 9.51473,12.28267 0,2.41245 -0.37805,2.73211 -3.23121,2.73211 -2.73879,0 -4.64374,-1.40666 -12.5,-9.23025 l -9.26879,-9.23025 -9.26879,9.23025 c -7.85626,7.82359 -9.76121,9.23025 -12.5,9.23025 -2.82568,0 -3.23121,-0.33134 -3.23121,-2.64008 z"
         id="path3034"
         style="fill:#f4f4f4" />
      <path
         d="m 135.39782,311.3979 c 0.45865,-2.30089 3.27366,-5.88799 9.63927,-12.28312 l 8.99143,-9.03312 -3.83449,-3.74428 c -3.82328,-3.73333 -3.83985,-3.73835 -5.66926,-1.71688 -1.7766,1.96313 -6.52479,2.85354 -6.52479,1.22357 0,-0.44211 1.57763,-2.33294 3.50585,-4.20185 l 3.50586,-3.398 -3.7088,-3.79816 c -2.03984,-2.08899 -4.24433,-3.79816 -4.89887,-3.79816 -1.51556,0 -2.51502,-2.54723 -1.76567,-4.5 0.91188,-2.37631 5.27276,-1.85598 6.28574,0.75 0.48103,1.2375 2.27358,3.57522 3.98345,5.19494 l 3.10883,2.94495 3.89119,-3.79964 c 3.74819,-3.66001 3.91673,-3.71917 4.58619,-1.60987 0.49726,1.56671 0.0414,2.88555 -1.60228,4.63513 l -2.2973,2.44535 3.70291,3.7029 3.7029,3.70291 3.69221,-3.69221 c 3.50764,-3.50765 3.60762,-3.78567 2,-5.56207 -0.93072,-1.02843 -1.69221,-3.16327 -1.69221,-4.74408 l 0,-2.87421 3.99651,3.9025 3.99652,3.90249 3.49608,-3.38854 c 1.92284,-1.86369 3.76304,-4.22965 4.08933,-5.25768 0.42185,-1.32916 1.36291,-1.78013 3.2574,-1.56101 3.59357,0.41564 4.22168,4.19165 0.97484,5.86047 -1.27087,0.65321 -3.7768,2.57544 -5.56872,4.27162 l -3.25804,3.08397 4.21625,4.29604 4.21625,4.29604 -3.05322,0 c -1.79699,0 -3.80814,-0.83417 -4.88799,-2.0274 -1.82941,-2.02147 -1.84598,-2.01645 -5.66972,1.71733 l -3.83494,3.74473 9.51472,9.55056 c 7.36748,7.39523 9.51473,10.16713 9.51473,12.28267 0,2.41245 -0.37805,2.73211 -3.23121,2.73211 -2.73879,0 -4.64374,-1.40666 -12.5,-9.23025 l -9.26879,-9.23025 -9.26879,9.23025 c -7.999,7.96574 -9.72858,9.23025 -12.625,9.23025 -3.25272,0 -3.33623,-0.10022 -2.70837,-3.25 z"
         id="path3032"
         style="fill:#e7e7e7" />
      <path
         d="m 135.39782,311.3979 c 0.45865,-2.30089 3.27366,-5.88799 9.63927,-12.28312 l 8.99143,-9.03312 -3.83449,-3.74428 c -3.82328,-3.73333 -3.83985,-3.73835 -5.66926,-1.71688 -1.7766,1.96313 -6.52479,2.85354 -6.52479,1.22357 0,-0.44211 1.57763,-2.33294 3.50585,-4.20185 l 3.50586,-3.398 -3.7088,-3.79816 c -2.03984,-2.08899 -4.24433,-3.79816 -4.89887,-3.79816 -1.75823,0 -2.61267,-3.04369 -1.29885,-4.62675 1.74453,-2.10203 4.84247,-1.63526 5.81892,0.87675 0.48103,1.2375 2.27358,3.57522 3.98345,5.19494 l 3.10883,2.94495 3.90657,-3.81466 c 3.81605,-3.72627 3.9155,-3.75975 4.29222,-1.44494 0.22781,1.39982 -0.43427,3.30306 -1.61766,4.65014 l -2.00333,2.28043 3.70291,3.7029 3.7029,3.70291 3.69221,-3.69221 c 3.50764,-3.50765 3.60762,-3.78567 2,-5.56207 -0.93072,-1.02843 -1.69221,-3.16327 -1.69221,-4.74408 l 0,-2.87421 3.99651,3.9025 3.99652,3.90249 3.49608,-3.38854 c 1.92284,-1.86369 3.76304,-4.22965 4.08933,-5.25768 0.42185,-1.32916 1.36291,-1.78013 3.2574,-1.56101 3.62059,0.41876 4.30854,4.41261 0.9835,5.70965 -1.27564,0.4976 -3.78324,2.43369 -5.57245,4.30243 l -3.25311,3.39769 3.50311,3.39535 c 1.92671,1.86745 3.50311,3.75708 3.50311,4.19919 0,1.62997 -4.74819,0.73956 -6.52479,-1.22357 -1.82941,-2.02147 -1.84598,-2.01645 -5.66972,1.71733 l -3.83494,3.74473 9.51472,9.55056 c 7.36748,7.39523 9.51473,10.16713 9.51473,12.28267 0,2.41245 -0.37805,2.73211 -3.23121,2.73211 -2.73879,0 -4.64374,-1.40666 -12.5,-9.23025 l -9.26879,-9.23025 -9.26879,9.23025 c -7.999,7.96574 -9.72858,9.23025 -12.625,9.23025 -3.25272,0 -3.33623,-0.10022 -2.70837,-3.25 z"
         id="path3030"
         style="fill:#dddddd" />
      <path
         d="m 135.51501,311.3979 c 0.47129,-2.27273 3.42152,-6.03193 9.81124,-12.50155 l 9.13731,-9.25154 -3.70136,-3.70136 -3.70136,-3.70136 -2.34488,2.20291 c -2.26014,2.12329 -6.71598,3.05152 -6.71598,1.39907 0,-0.44211 1.57763,-2.33294 3.50585,-4.20185 l 3.50586,-3.398 -3.7088,-3.79816 c -2.03984,-2.08899 -4.24433,-3.79816 -4.89887,-3.79816 -1.75823,0 -2.61267,-3.04369 -1.29885,-4.62675 1.74453,-2.10203 4.84247,-1.63526 5.81892,0.87675 0.48103,1.2375 2.27358,3.57522 3.98345,5.19494 l 3.10883,2.94495 3.99181,-3.89789 3.9918,-3.8979 0,2.87421 c 0,1.58081 -0.76149,3.71565 -1.69221,4.74408 -1.60762,1.7764 -1.50765,2.05442 2,5.56207 l 3.69221,3.69221 3.66185,-3.66185 c 3.5806,-3.5806 3.62497,-3.71813 2,-6.19815 -0.91402,-1.39497 -1.66185,-3.54346 -1.66185,-4.77443 0,-2.03988 0.35402,-1.89244 3.99651,1.66436 l 3.99652,3.90249 3.49608,-3.38854 c 1.92284,-1.86369 3.76304,-4.22965 4.08933,-5.25768 0.42185,-1.32916 1.36291,-1.78013 3.2574,-1.56101 3.62059,0.41876 4.30854,4.41261 0.9835,5.70965 -1.27564,0.4976 -3.78324,2.43369 -5.57245,4.30243 l -3.25311,3.39769 3.50311,3.39535 c 1.92671,1.86745 3.50311,3.75708 3.50311,4.19919 0,1.58985 -3.41811,0.75967 -5.70049,-1.38452 l -2.3294,-2.18836 -3.99978,3.90568 -3.99978,3.90569 9.51472,9.55056 c 7.36748,7.39523 9.51473,10.16713 9.51473,12.28267 0,2.31854 -0.41927,2.73211 -2.76975,2.73211 -2.16809,0 -4.82501,-2.06385 -12.23118,-9.50093 l -9.46142,-9.50093 -9.53672,9.50093 c -8.19945,8.16868 -10.00107,9.50093 -12.84828,9.50093 -3.2077,0 -3.29042,-0.10193 -2.63762,-3.25 z"
         id="path3028"
         style="fill:#d4d4d4" />
      <path
         d="m 135.45142,311.8979 c 0.37784,-1.5549 4.55349,-6.66942 9.6084,-11.76879 4.91709,-4.96033 8.94016,-9.48456 8.94016,-10.05383 0,-0.56928 -1.56985,-2.5566 -3.48855,-4.41628 l -3.48855,-3.38124 -2.3259,2.18507 c -2.17977,2.04778 -6.697,3.0442 -6.697,1.47723 0,-0.38931 1.6093,-2.35591 3.57623,-4.37023 l 3.57624,-3.66239 -5.49594,-4.84554 c -4.49209,-3.96049 -5.32153,-5.17144 -4.54105,-6.62977 1.34531,-2.51374 4.75678,-2.24019 5.80863,0.46577 0.48103,1.2375 2.27358,3.57522 3.98345,5.19494 l 3.10883,2.94495 3.99181,-3.89789 3.9918,-3.8979 0,2.87421 c 0,1.58081 -0.76191,3.71611 -1.69314,4.7451 -1.60993,1.77896 -1.49784,2.0662 2.28107,5.84511 l 3.97421,3.97421 3.90729,-4.00142 3.90728,-4.00142 -2.18836,-2.3294 c -1.20359,-1.28116 -2.18835,-3.40422 -2.18835,-4.71789 0,-2.263 0.2149,-2.18081 4.09022,1.56445 l 4.09022,3.95295 4.82031,-5.34055 c 5.11096,-5.66258 8.23198,-6.51227 8.81859,-2.40085 0.22599,1.5839 -0.35866,2.50265 -2,3.14291 -1.27564,0.4976 -3.78324,2.43369 -5.57245,4.30243 l -3.25311,3.39769 3.50311,3.39535 c 1.92671,1.86745 3.50311,3.75708 3.50311,4.19919 0,1.58985 -3.41811,0.75967 -5.70049,-1.38452 l -2.3294,-2.18836 -3.99978,3.90568 -3.99978,3.90569 9.51472,9.55056 c 7.36748,7.39523 9.51473,10.16713 9.51473,12.28267 0,2.31854 -0.41927,2.73211 -2.76975,2.73211 -2.16809,0 -4.82501,-2.06385 -12.23118,-9.50093 l -9.46142,-9.50093 -9.53672,9.50093 c -8.23279,8.2019 -9.99345,9.50093 -12.87723,9.50093 -3.13953,0 -3.30031,-0.16545 -2.67226,-2.75 z"
         id="path3026"
         style="fill:#c8c8c8" />
      <path
         d="m 135.59903,311.8979 c 0.36544,-1.57726 4.42486,-6.59608 9.51906,-11.76879 4.88504,-4.96033 8.88189,-9.48456 8.88189,-10.05383 0,-0.56928 -1.56985,-2.5566 -3.48855,-4.41628 l -3.48855,-3.38124 -2.3259,2.18507 c -2.32763,2.18669 -4.75986,2.78888 -6.05067,1.49806 -0.37786,-0.37785 0.92409,-2.33692 2.89321,-4.35349 l 3.58023,-3.66648 -5.13835,-4.61982 c -5.44533,-4.89581 -6.23682,-7.91983 -2.22282,-8.49254 1.58462,-0.22609 2.50126,0.35792 3.13915,2 0.49553,1.27564 2.29994,3.64456 4.00981,5.26428 l 3.10883,2.94495 3.99181,-3.89789 3.9918,-3.8979 0,2.87421 c 0,1.58081 -0.76191,3.71611 -1.69314,4.7451 -1.60993,1.77896 -1.49784,2.0662 2.28107,5.84511 l 3.97421,3.97421 3.90729,-4.00142 3.90728,-4.00142 -2.18836,-2.3294 c -1.20359,-1.28116 -2.18835,-3.40422 -2.18835,-4.71789 0,-2.263 0.2149,-2.18081 4.09022,1.56445 l 4.09022,3.95295 4.73921,-5.25 c 5.01987,-5.56093 7.54267,-6.51944 8.57751,-3.25895 0.72817,2.29425 -0.0645,4.00895 -1.85323,4.00895 -0.68092,0 -2.907,1.70917 -4.94684,3.79816 l -3.7088,3.79816 3.50585,3.398 c 1.92822,1.86891 3.50586,3.75974 3.50586,4.20185 0,1.58985 -3.41811,0.75967 -5.70049,-1.38452 l -2.3294,-2.18836 -3.99978,3.90568 -3.99978,3.90569 9.51472,9.55056 c 7.36748,7.39523 9.51473,10.16713 9.51473,12.28267 0,2.31854 -0.41927,2.73211 -2.76975,2.73211 -2.16809,0 -4.82501,-2.06385 -12.23118,-9.50093 l -9.46142,-9.50093 -9.53672,9.50093 c -8.12797,8.09748 -10.01697,9.50093 -12.78787,9.50093 -3.03452,0 -3.20871,-0.18325 -2.61401,-2.75 z"
         id="path3024"
         style="fill:#b6b6b6" />
      <path
         d="m 135.75287,311.8979 c 0.30453,-1.76104 3.85616,-6.17814 9.87606,-12.28267 l 9.4005,-9.53267 -3.91389,-3.82182 -3.91389,-3.82181 -2.90544,2.14808 c -1.81043,1.33851 -3.5714,1.89253 -4.67247,1.47001 -1.53954,-0.59078 -1.29951,-1.15686 1.86449,-4.39709 l 3.63152,-3.71901 -5.13835,-4.61982 c -5.44533,-4.89581 -6.23682,-7.91983 -2.22282,-8.49254 1.58462,-0.22609 2.50126,0.35792 3.13915,2 0.49553,1.27564 2.29994,3.64456 4.00981,5.26428 l 3.10883,2.94495 3.99181,-3.89789 3.9918,-3.8979 0,2.87421 c 0,1.58081 -0.76191,3.71611 -1.69314,4.7451 -1.60993,1.77896 -1.49784,2.0662 2.28107,5.84511 l 3.97421,3.97421 3.90729,-4.00142 3.90728,-4.00142 -2.18836,-2.3294 c -1.20359,-1.28116 -2.18835,-3.40422 -2.18835,-4.71789 0,-2.263 0.2149,-2.18081 4.09022,1.56445 l 4.09022,3.95295 4.73921,-5.25 c 4.80241,-5.32002 7.3972,-6.47265 8.44198,-3.75 0.74934,1.95277 -0.25011,4.5 -1.76567,4.5 -0.65454,0 -2.85903,1.70917 -4.89887,3.79816 l -3.7088,3.79816 3.51506,3.40693 c 2.98324,2.89147 3.27415,3.54176 1.92273,4.29806 -1.13239,0.63371 -2.2948,0.2312 -4.02416,-1.39345 l -2.43181,-2.28457 -3.99978,3.90568 -3.99978,3.90569 9.51472,9.55056 c 7.36748,7.39523 9.51473,10.16713 9.51473,12.28267 0,2.31854 -0.41927,2.73211 -2.76975,2.73211 -2.16809,0 -4.82501,-2.06385 -12.23118,-9.50093 l -9.46142,-9.50093 -9.53672,9.50093 c -7.92818,7.89844 -10.05847,9.50093 -12.63015,9.50093 -2.82328,0 -3.05191,-0.24017 -2.61789,-2.75 z m 17.24711,-29.62755 c 0,-0.20766 -0.7875,-0.99516 -1.75,-1.75 -1.58606,-1.24388 -1.62143,-1.20851 -0.37756,0.37755 1.30637,1.66575 2.12756,2.19548 2.12756,1.37245 z"
         id="path3022"
         style="fill:#a7a7a7" />
      <path
         d="m 135.99998,311.91579 c 0,-2.11554 2.14725,-4.88744 9.51473,-12.28267 l 9.51472,-9.55057 -3.98923,-3.89538 c -3.77861,-3.68971 -4.08714,-3.80678 -5.84347,-2.21733 -1.01983,0.92293 -2.91957,1.67806 -4.22166,1.67806 -2.32236,0 -2.30658,-0.0628 0.82874,-3.29761 1.75789,-1.81368 3.19617,-3.75041 3.19617,-4.30383 0,-1.3359 -6.01562,-6.93889 -8.32014,-7.74944 -2.63692,-0.92746 -1.82545,-5.05745 1.07461,-5.46926 1.47289,-0.20915 2.47641,0.31087 2.89465,1.5 0.81055,2.30451 6.41354,8.32014 7.74944,8.32014 0.55342,0 2.49015,-1.43827 4.30383,-3.19617 3.23483,-3.13532 3.29761,-3.1511 3.29761,-0.82874 0,1.30209 -0.76191,3.20933 -1.69314,4.23832 -1.60993,1.77896 -1.49784,2.0662 2.28107,5.84511 l 3.97421,3.97421 3.90729,-4.00142 3.90728,-4.00142 -2.18836,-2.3294 c -2.08002,-2.21408 -2.98883,-5.70049 -1.48596,-5.70049 0.38632,0 2.22389,1.4625 4.08349,3.25 l 3.3811,3.25 4.85237,-5.25 c 5.16812,-5.59162 6.07979,-6.04039 7.87546,-3.87675 1.28163,1.54428 0.47574,4.62675 -1.20964,4.62675 -0.60546,0 -2.80842,1.6674 -4.89545,3.70533 l -3.79461,3.70534 3.70539,3.79466 c 3.53507,3.62024 3.59626,3.79467 1.33119,3.79467 -1.30582,0 -3.20861,-0.75513 -4.22844,-1.67806 -1.75625,-1.58938 -2.06394,-1.47328 -5.82251,2.19687 l -3.96828,3.87492 9.49377,9.66306 c 7.15425,7.28182 9.49377,10.31364 9.49377,12.30313 0,2.21798 -0.44283,2.64008 -2.76975,2.64008 -2.16809,0 -4.82501,-2.06385 -12.23118,-9.50093 l -9.46142,-9.50093 -9.53672,9.50093 c -7.38353,7.35583 -10.15356,9.50093 -12.26882,9.50093 -2.30948,0 -2.73211,-0.42263 -2.73211,-2.73211 z m 21,-25.57172 c 0,-0.16711 -1.6875,-1.85461 -3.75,-3.75 l -3.75,-3.44617 3.44617,3.75 c 3.20761,3.49042 4.05383,4.20979 4.05383,3.44617 z m 12,-4.19617 c 1.29174,-1.375 2.12363,-2.5 1.84863,-2.5 -0.275,0 -1.55689,1.125 -2.84863,2.5 -1.29175,1.375 -2.12363,2.5 -1.84863,2.5 0.275,0 1.55688,-1.125 2.84863,-2.5 z"
         id="path3020"
         style="fill:#959595" />
      <path
         d="m 135.99998,311.91579 c 0,-2.11554 2.14725,-4.88744 9.51473,-12.28267 l 9.51472,-9.55057 -3.98923,-3.89538 c -3.77861,-3.68971 -4.08714,-3.80678 -5.84347,-2.21733 -1.01983,0.92293 -2.91957,1.67806 -4.22166,1.67806 -2.32236,0 -2.30658,-0.0628 0.82874,-3.29761 1.75789,-1.81368 3.19617,-3.75041 3.19617,-4.30383 0,-1.3359 -6.01562,-6.93889 -8.32014,-7.74944 -2.63422,-0.92651 -1.82587,-5.05737 1.07014,-5.46867 1.2375,-0.17575 2.25,0.1718 2.25,0.77234 0,0.60054 1.87447,3.12545 4.16548,5.61091 l 4.16548,4.51902 3.83452,-3.74431 c 3.65126,-3.56536 3.83452,-3.63084 3.83452,-1.3701 0,1.30581 -0.76191,3.21611 -1.69314,4.2451 -1.60993,1.77896 -1.49784,2.0662 2.28107,5.84511 l 3.97421,3.97421 3.90729,-4.00142 3.90728,-4.00142 -2.18836,-2.3294 c -2.14979,-2.28835 -2.97309,-5.70049 -1.37544,-5.70049 0.4471,0 2.10629,1.35 3.68709,3 1.5808,1.65 3.3808,3 4,3 1.36807,0 5.82134,-4.65571 7.413,-7.75 1.34729,-2.61922 3.30968,-2.89154 5.11981,-0.71046 1.08756,1.31042 0.42617,2.2985 -4.4443,6.63948 l -5.72201,5.09994 3.7697,3.86052 c 3.75237,3.84278 3.75784,3.86052 1.18919,3.86052 -1.41927,0 -3.1407,-0.675 -3.82539,-1.5 -1.86806,-2.25088 -3.26651,-1.85199 -6.99554,1.9954 l -3.38787,3.4954 9.6917,9.86452 c 7.31731,7.44779 9.69171,10.51133 9.69171,12.5046 0,2.20923 -0.44587,2.64008 -2.73211,2.64008 -2.1198,0 -4.92126,-2.18094 -12.5,-9.73124 l -9.76789,-9.73124 -9.76789,9.73124 c -10.47183,10.43254 -14.23211,12.28179 -14.23211,6.99913 z m 31,-27.76789 c 2.42903,-2.475 4.19142,-4.5 3.91642,-4.5 -0.275,0 -2.48739,2.025 -4.91642,4.5 -2.42903,2.475 -4.19142,4.5 -3.91642,4.5 0.275,0 2.48739,-2.025 4.91642,-4.5 z m -10,2.19617 c 0,-0.16711 -1.6875,-1.85461 -3.75,-3.75 l -3.75,-3.44617 3.44617,3.75 c 3.20761,3.49042 4.05383,4.20979 4.05383,3.44617 z"
         id="path3018"
         style="fill:#838383" />
      <path
         d="m 135.99998,311.87815 c 0,-2.16784 2.06208,-4.82325 9.4889,-12.2192 l 9.48891,-9.44945 -3.69185,-3.7808 c -4.03318,-4.13035 -5.39672,-4.55719 -7.28596,-2.2808 -0.68469,0.825 -2.17806,1.5 -3.31861,1.5 -1.87138,0 -1.76185,-0.32177 1.12244,-3.29761 1.75789,-1.81368 3.19617,-3.75041 3.19617,-4.30383 0,-1.31645 -6.00207,-6.93476 -8.25,-7.72252 -2.17149,-0.76098 -2.30444,-4.52605 -0.18848,-5.33802 1.05859,-0.40622 3.19699,1.23575 6.63948,5.09813 l 5.07796,5.69735 3.86052,-3.7697 c 3.12045,-3.04704 3.86052,-3.40767 3.86052,-1.8812 0,1.03867 -0.99173,2.94415 -2.20385,4.23439 l -2.20385,2.34589 4.20385,4.20386 4.20385,4.20385 4.20385,-4.20385 4.20385,-4.20386 -2.20385,-2.34589 c -2.15679,-2.2958 -2.9946,-5.71699 -1.40002,-5.71699 0.44211,0 2.33019,1.5748 4.19574,3.49956 l 3.39191,3.49956 2.89354,-2.74956 c 1.59144,-1.51226 3.53991,-3.98706 4.32994,-5.49956 1.60945,-3.0813 3.51235,-3.50645 5.41785,-1.21046 1.08756,1.31042 0.42617,2.2985 -4.4443,6.63948 l -5.72201,5.09994 3.7697,3.86052 c 3.75237,3.84278 3.75784,3.86052 1.18919,3.86052 -1.41927,0 -3.1407,-0.675 -3.82539,-1.5 -0.68469,-0.825 -1.77651,-1.5 -2.42628,-1.5 -1.35691,0 -7.57372,6.14655 -7.57372,7.48813 0,0.4911 4.275,5.24414 9.5,10.56232 10.13834,10.31912 11.89971,13.94955 6.76789,13.94955 -2.1198,0 -4.92126,-2.18094 -12.5,-9.73124 l -9.76789,-9.73124 -9.76789,9.73124 c -10.49825,10.45886 -14.23211,12.28524 -14.23211,6.96149 z m 35,-32.16764 c 0,-0.275 -2.7,2.17182 -6,5.43739 -3.3,3.26557 -6,6.16239 -6,6.43739 0,0.275 2.7,-2.17182 6,-5.43739 3.3,-3.26557 6,-6.16239 6,-6.43739 z m -16.5,3.93739 c -2.14824,-2.2 -4.1309,-4 -4.4059,-4 -0.275,0 1.25766,1.8 3.4059,4 2.14824,2.2 4.1309,4 4.4059,4 0.275,0 -1.25766,-1.8 -3.4059,-4 z"
         id="path3016"
         style="fill:#777777" />
      <path
         d="m 135.99998,311.91579 c 0,-2.11548 2.14683,-4.88702 9.51204,-12.27998 l 9.51204,-9.54786 -4.33017,-4.24974 c -4.3146,-4.23446 -4.33676,-4.24244 -6.16702,-2.22002 -1.01028,1.11634 -2.7554,2.02971 -3.87804,2.02971 -1.82141,0 -1.69705,-0.35505 1.15498,-3.29761 1.75789,-1.81368 3.19617,-3.75041 3.19617,-4.30383 0,-1.31645 -6.00207,-6.93476 -8.25,-7.72252 -2.17149,-0.76098 -2.30444,-4.52605 -0.18848,-5.33802 1.05859,-0.40622 3.19699,1.23575 6.63948,5.09813 l 5.07796,5.69735 3.86052,-3.7697 c 3.12045,-3.04704 3.86052,-3.40767 3.86052,-1.8812 0,1.03867 -0.99173,2.94415 -2.20385,4.23439 l -2.20385,2.34589 4.20385,4.20386 4.20385,4.20385 4.20385,-4.20385 4.20385,-4.20386 -2.20385,-2.34589 c -2.15679,-2.2958 -2.9946,-5.71699 -1.40002,-5.71699 0.44211,0 2.33174,1.5764 4.19919,3.50311 l 3.39534,3.50311 3.3977,-3.25311 c 1.86874,-1.78921 3.79297,-4.26561 4.27607,-5.50311 1.01914,-2.61059 3.13252,-2.91327 4.96068,-0.71046 1.08756,1.31042 0.42617,2.2985 -4.4443,6.63948 l -5.72201,5.09994 3.7697,3.86052 c 3.72779,3.8176 3.74137,3.86052 1.22173,3.86052 -1.40137,0 -3.3736,-0.91233 -4.38272,-2.0274 -1.82947,-2.02153 -1.84581,-2.01662 -5.65499,1.70295 -2.10112,2.05169 -3.82022,4.19306 -3.82022,4.75861 0,0.56554 4.02307,5.08672 8.94015,10.04705 5.05491,5.09937 9.23057,10.21389 9.60841,11.76879 0.61028,2.51142 0.42182,2.75 -2.17226,2.75 -2.25692,0 -4.8474,-1.99935 -12.60841,-9.73124 l -9.76789,-9.73124 -9.76789,9.73124 c -10.47183,10.43254 -14.23211,12.28179 -14.23211,6.99913 z m 31,-15.6129 c 0,-0.18976 -1.0125,-1.20226 -2.25,-2.25 l -2.25,-1.90499 1.90499,2.25 c 1.79022,2.11444 2.59501,2.70524 2.59501,1.90499 z m -3,-9.15499 c 4.09747,-4.125 7.22494,-7.5 6.94994,-7.5 -0.275,0 -3.85247,3.375 -7.94994,7.5 -4.09747,4.125 -7.22495,7.5 -6.94995,7.5 0.275,0 3.85248,-3.375 7.94995,-7.5 z m -9.5,-3.5 c -2.14824,-2.2 -4.1309,-4 -4.4059,-4 -0.275,0 1.25766,1.8 3.4059,4 2.14824,2.2 4.1309,4 4.4059,4 0.275,0 -1.25766,-1.8 -3.4059,-4 z"
         id="path3014"
         style="fill:#656565" />
      <path
         d="m 135.99998,311.91579 c 0,-2.11548 2.14683,-4.88702 9.51204,-12.27998 l 9.51204,-9.54786 -4.33017,-4.24974 c -4.3146,-4.23446 -4.33676,-4.24244 -6.16702,-2.22002 -1.01028,1.11634 -2.75845,2.02971 -3.88483,2.02971 -1.77276,0 -1.55004,-0.50992 1.65744,-3.79467 l 3.70539,-3.79466 -3.75245,-3.56226 c -2.06384,-1.95924 -4.53994,-3.83752 -5.50244,-4.17395 -2.17149,-0.75902 -2.30449,-4.52445 -0.18848,-5.33644 1.05859,-0.40622 3.19699,1.23575 6.63948,5.09813 l 5.07796,5.69735 3.86052,-3.7697 c 3.12045,-3.04704 3.86052,-3.40767 3.86052,-1.8812 0,1.03867 -0.99173,2.94415 -2.20385,4.23439 l -2.20385,2.34589 4.20385,4.20386 4.20385,4.20385 4.20385,-4.20385 4.20385,-4.20386 -2.33036,-2.48056 c -1.49216,-1.58833 -2.09285,-3.09951 -1.67003,-4.20136 0.56511,-1.47266 1.20266,-1.19123 4.42118,1.95156 l 3.76084,3.67237 3.56226,-3.75245 c 1.95924,-2.06384 3.85028,-4.5732 4.20231,-5.57635 0.79254,-2.25845 3.99484,-1.81928 4.46308,0.61209 0.21507,1.11679 -1.54753,3.46221 -4.7984,6.38502 l -5.13835,4.61982 3.76283,3.85349 c 3.72219,3.81186 3.73531,3.85349 1.21487,3.85349 -1.40137,0 -3.3736,-0.91233 -4.38272,-2.0274 -1.82947,-2.02153 -1.84581,-2.01662 -5.65499,1.70295 -2.10112,2.05169 -3.82022,4.19306 -3.82022,4.75861 0,0.56554 3.99685,5.08672 8.88189,10.04705 5.09419,5.17271 9.15362,10.19153 9.51906,11.76879 0.57645,2.48801 0.37505,2.75 -2.11401,2.75 -2.14389,0 -4.90724,-2.14799 -12.51905,-9.73124 l -9.76789,-9.73124 -9.76789,9.73124 c -10.47183,10.43254 -14.23211,12.28179 -14.23211,6.99913 z m 34,-12.57172 c 0,-0.16711 -1.6875,-1.85461 -3.75,-3.75 l -3.75,-3.44617 3.44617,3.75 c 3.20761,3.49042 4.05383,4.20979 4.05383,3.44617 z m 1,-19.50865 c 0,-0.99258 -2.2434,1.10202 -9.97403,9.31248 l -8.47404,9 9.22404,-8.97915 c 5.07321,-4.93853 9.22403,-9.13853 9.22403,-9.33333 z m -13,7.52069 c 0,-0.16049 -2.1375,-2.29799 -4.75,-4.75 l -4.75,-4.45821 4.45821,4.75 c 4.14396,4.41519 5.04179,5.20909 5.04179,4.45821 z"
         id="path3012"
         style="fill:#555555" />
      <path
         d="m 135.99998,311.91579 c 0,-2.11548 2.14683,-4.88702 9.51204,-12.27998 l 9.51204,-9.54786 -4.33017,-4.24974 c -4.3146,-4.23446 -4.33676,-4.24244 -6.16702,-2.22002 -1.01028,1.11634 -2.75845,2.02971 -3.88483,2.02971 -1.77276,0 -1.55004,-0.50992 1.65744,-3.79467 l 3.70539,-3.79466 -3.75245,-3.56226 c -2.06384,-1.95924 -4.53994,-3.83752 -5.50244,-4.17395 -2.2172,-0.775 -2.28319,-4.25588 -0.0966,-5.09496 1.17455,-0.45072 3.09748,0.98574 6.63948,4.95976 l 4.98606,5.59424 3.86052,-3.7697 c 3.12045,-3.04704 3.86052,-3.40767 3.86052,-1.8812 0,1.03867 -0.99173,2.94415 -2.20385,4.23439 l -2.20385,2.34589 4.20385,4.20386 4.20385,4.20385 4.20385,-4.20385 4.20385,-4.20386 -2.08776,-2.28144 c -1.31892,-1.44127 -1.84551,-2.93726 -1.42994,-4.06231 0.5733,-1.55203 1.09797,-1.32675 4.0831,1.75311 l 3.42526,3.53398 3.3977,-3.25311 c 1.86874,-1.78921 3.80542,-4.29835 4.30373,-5.57587 1.04904,-2.68938 4.19213,-2.61546 4.71719,0.11094 0.21507,1.11679 -1.54753,3.46221 -4.7984,6.38502 l -5.13835,4.61982 3.76283,3.85349 c 3.72219,3.81186 3.73531,3.85349 1.21487,3.85349 -1.40137,0 -3.3736,-0.91233 -4.38272,-2.0274 -1.82947,-2.02153 -1.84581,-2.01662 -5.65499,1.70295 -2.10112,2.05169 -3.82022,4.2109 -3.82022,4.79825 0,0.58734 4.00791,5.05724 8.90647,9.9331 6.13537,6.10694 9.03725,9.75628 9.32681,11.72915 0.36568,2.49156 0.0996,2.86395 -2.04655,2.86395 -1.77457,0 -5.24025,-2.72478 -12.34907,-9.70906 l -9.88219,-9.70906 -9.74562,9.70906 c -10.44979,10.41057 -14.20985,12.25674 -14.20985,6.97695 z m 36,-10.55968 c 0,-0.16049 -2.1375,-2.29799 -4.75,-4.75 l -4.75,-4.45821 4.45821,4.75 c 4.14396,4.41519 5.04179,5.20909 5.04179,4.45821 z m -1.08422,-22.12576 c -0.27228,-0.27229 -5.16188,4.54777 -10.86576,10.71124 l -10.3707,11.20631 10.86577,-10.71124 c 5.97617,-5.89118 10.64298,-10.93402 10.37069,-11.20631 z m -16.8952,3.93851 c -2.41772,-2.46346 -4.60336,-4.27152 -4.85699,-4.01789 -0.4351,0.4351 7.81588,8.36831 8.79462,8.45592 0.25201,0.0226 -1.51992,-1.97456 -3.93763,-4.43803 z"
         id="path3010"
         style="fill:#4a4a4a" />
      <path
         d="m 135.99998,311.91579 c 0,-2.11548 2.14683,-4.88702 9.51204,-12.27998 l 9.51204,-9.54786 -4.33017,-4.24974 c -4.3146,-4.23446 -4.33676,-4.24244 -6.16702,-2.22002 -1.01028,1.11634 -2.75845,2.02971 -3.88483,2.02971 -1.77276,0 -1.55004,-0.50992 1.65744,-3.79467 l 3.70539,-3.79466 -3.75245,-3.56226 c -2.06384,-1.95924 -4.53994,-3.83752 -5.50244,-4.17395 -2.2172,-0.775 -2.28319,-4.25588 -0.0966,-5.09496 1.17455,-0.45072 3.09748,0.98574 6.63948,4.95976 l 4.98606,5.59424 3.86052,-3.7697 c 3.12045,-3.04704 3.86052,-3.40767 3.86052,-1.8812 0,1.03867 -0.99173,2.94415 -2.20385,4.23439 l -2.20385,2.34589 4.20385,4.20386 4.20385,4.20385 4.19314,-4.19314 c 3.98891,-3.98891 4.11067,-4.28426 2.5,-6.06404 -0.93123,-1.02899 -1.69314,-2.71123 -1.69314,-3.73832 0,-1.53277 0.62721,-1.2595 3.5,1.52491 l 3.5,3.39233 3.59688,-3.44616 c 1.97829,-1.8954 4.0046,-4.49141 4.50291,-5.76893 0.56279,-1.44279 1.56357,-2.19614 2.64164,-1.98852 3.48848,0.67182 2.45627,3.75752 -2.91864,8.725 l -5.32279,4.9193 3.44617,3.58349 c 3.02804,3.14871 3.19851,3.58349 1.40498,3.58349 -1.12264,0 -2.86776,-0.91337 -3.87804,-2.02971 -1.83026,-2.02242 -1.85243,-2.01444 -6.16703,2.22002 l -4.33016,4.24974 9.39782,9.52997 c 10.15265,10.29543 12.62468,15.02998 7.84751,15.02998 -1.81784,0 -5.19585,-2.64724 -12.36133,-9.68719 l -9.85992,-9.68718 -9.85992,9.68718 c -10.50674,10.32267 -14.14008,12.1098 -14.14008,6.95508 z m 32.5,-14.26789 c -2.70865,-2.75 -5.14982,-5 -5.42482,-5 -0.275,0 1.71617,2.25 4.42482,5 2.70865,2.75 5.14982,5 5.42482,5 0.275,0 -1.71617,-2.25 -4.42482,-5 z m 2.36394,-18.46939 c -0.30094,-0.30094 -5.41894,4.74406 -11.37334,11.21111 l -10.82618,11.75828 11.37334,-11.21111 c 6.25534,-6.16611 11.12713,-11.45734 10.82618,-11.75828 z m -16.84336,3.99035 c -2.41772,-2.46346 -4.64891,-4.21789 -4.95821,-3.89872 -0.51065,0.52694 7.81873,8.3687 8.89584,8.37505 0.25201,0.002 -1.51992,-2.01286 -3.93763,-4.47633 z"
         id="path3008"
         style="fill:#434343" />
      <path
         d="m 135.99998,312.0242 c 0,-2.25243 1.96933,-4.81726 9.51204,-12.38839 l 9.51204,-9.54786 -4.33017,-4.24974 c -4.3146,-4.23446 -4.33676,-4.24244 -6.16702,-2.22002 -1.01028,1.11634 -2.75845,2.02971 -3.88483,2.02971 -1.76902,0 -1.53797,-0.52227 1.69635,-3.83452 l 3.74431,-3.83452 -4.51902,-4.16548 c -2.48546,-2.29101 -4.97907,-4.16548 -5.54136,-4.16548 -1.64423,0 -1.17438,-3.72768 0.55342,-4.3907 1.07006,-0.41062 3.20459,1.17751 6.65104,4.94848 l 5.07527,5.55315 3.84896,-3.75841 c 3.11311,-3.03987 3.84897,-3.39737 3.84897,-1.86992 0,1.03867 -0.99173,2.94415 -2.20385,4.23439 l -2.20385,2.34589 4.20385,4.20386 4.20385,4.20385 4.19314,-4.19314 c 3.98891,-3.98891 4.11067,-4.28426 2.5,-6.06404 -0.93123,-1.02899 -1.69314,-2.71123 -1.69314,-3.73832 0,-1.53242 0.6285,-1.25826 3.50348,1.52829 l 3.50349,3.39571 3.99651,-3.90249 c 2.19809,-2.14637 3.99652,-4.43802 3.99652,-5.09256 0,-1.40115 2.78064,-2.65764 4.09024,-1.84827 1.56758,0.96882 0.99167,4.4783 -0.84024,5.12027 -2.24793,0.78776 -8.25,6.40607 -8.25,7.72252 0,0.55342 1.43827,2.49015 3.19617,4.30383 2.85203,2.94256 2.97639,3.29761 1.15498,3.29761 -1.12264,0 -2.86776,-0.91337 -3.87804,-2.02971 -1.83026,-2.02242 -1.85243,-2.01444 -6.16703,2.22002 l -4.33016,4.24974 9.51204,9.54786 c 7.54271,7.57113 9.51204,10.13596 9.51204,12.38839 0,2.59408 -0.23858,2.78254 -2.75,2.17226 -1.56355,-0.37994 -6.74077,-4.62468 -12,-9.83865 l -9.25,-9.17041 -9.25,9.17041 c -5.25923,5.21397 -10.43645,9.45871 -12,9.83865 -2.51142,0.61028 -2.75,0.42182 -2.75,-2.17226 z m 33.5,-13.3763 c -3.26557,-3.3 -6.16239,-6 -6.43739,-6 -0.275,0 2.17182,2.7 5.43739,6 3.26557,3.3 6.16239,6 6.43739,6 0.275,0 -2.17182,-2.7 -5.43739,-6 z m 1.5,-19.29339 c 0,-1.44446 -1.48498,-0.0201 -13.05052,12.51829 l -11.32274,12.2751 12.18663,-11.98437 c 6.70265,-6.5914 12.18663,-12.35546 12.18663,-12.80902 z m -16.97942,3.81435 c -2.41772,-2.46346 -4.61967,-4.2552 -4.89324,-3.98164 -0.65588,0.65589 6.98576,8.46068 8.28382,8.46068 0.55289,0 -0.97287,-2.01557 -3.39058,-4.47904 z"
         id="path3006"
         style="fill:#383838" />
      <path
         d="m 135.99998,312.0242 c 0,-2.25243 1.96933,-4.81726 9.51204,-12.38839 l 9.51204,-9.54786 -4.33017,-4.24974 c -4.3146,-4.23446 -4.33676,-4.24244 -6.16702,-2.22002 -1.01028,1.11634 -2.75845,2.02971 -3.88483,2.02971 -1.76902,0 -1.53797,-0.52227 1.69635,-3.83452 l 3.74431,-3.83452 -4.51902,-4.16548 c -2.48546,-2.29101 -4.97907,-4.16548 -5.54136,-4.16548 -1.59507,0 -1.20091,-2.60691 0.62303,-4.12065 1.41788,-1.17673 1.7981,-1.0978 2.75,0.57095 0.60755,1.06506 2.7649,3.76195 4.79412,5.99309 l 3.68949,4.05661 4.06051,-3.95295 c 3.25181,-3.16567 4.06051,-3.57683 4.06051,-2.06445 0,1.03867 -0.99173,2.94415 -2.20385,4.23439 l -2.20385,2.34589 4.20385,4.20386 4.20385,4.20385 4.19314,-4.19314 c 3.98891,-3.98891 4.11067,-4.28426 2.5,-6.06404 -0.93123,-1.02899 -1.69314,-2.71123 -1.69314,-3.73832 0,-1.53242 0.6285,-1.25826 3.50348,1.52829 l 3.50349,3.39571 3.99651,-3.90249 c 2.19809,-2.14637 3.99652,-4.43802 3.99652,-5.09256 0,-1.40115 2.78064,-2.65764 4.09024,-1.84827 1.56758,0.96882 0.99167,4.4783 -0.84024,5.12027 -2.24793,0.78776 -8.25,6.40607 -8.25,7.72252 0,0.55342 1.43827,2.49015 3.19617,4.30383 2.85203,2.94256 2.97639,3.29761 1.15498,3.29761 -1.12264,0 -2.86776,-0.91337 -3.87804,-2.02971 -1.83026,-2.02242 -1.85243,-2.01444 -6.16703,2.22002 l -4.33016,4.24974 9.51204,9.54786 c 7.39742,7.42529 9.51204,10.15948 9.51204,12.29903 0,2.48906 -0.26199,2.69046 -2.75,2.11401 -1.58608,-0.36749 -6.66499,-4.49381 -12,-9.74931 l -9.25,-9.11214 -9.25,9.17041 c -5.25923,5.21397 -10.43645,9.45871 -12,9.83865 -2.51142,0.61028 -2.75,0.42182 -2.75,-2.17226 z m 42,-4.65133 c 0,-0.15126 -3.4875,-3.63876 -7.75,-7.75 l -7.75,-7.47497 7.47497,7.75 c 6.94259,7.19803 8.02503,8.20627 8.02503,7.47497 z m -7,-28.17692 c 0,-1.28621 -9.11782,7.68495 -19.26179,18.95195 -6.88206,7.64398 -6.04141,6.96806 5.57943,-4.48611 7.5253,-7.41736 13.68236,-13.92698 13.68236,-14.46584 z m -16.97942,3.97291 c -2.41772,-2.46346 -4.61967,-4.2552 -4.89324,-3.98164 -0.65588,0.65589 6.98576,8.46068 8.28382,8.46068 0.55289,0 -0.97287,-2.01557 -3.39058,-4.47904 z"
         id="path3004"
         style="fill:#242424" />
      <path
         d="m 135.99998,311.93484 c 0,-2.14393 2.14829,-4.90755 9.73326,-12.52108 l 9.73326,-9.76992 -4.20182,-4.20182 -4.20182,-4.20182 -2.34589,2.20385 c -1.29024,1.21212 -3.19572,2.20385 -4.23439,2.20385 -1.52647,0 -1.16584,-0.74007 1.8812,-3.86052 l 3.7697,-3.86052 -5.77412,-5.14639 c -5.53917,-4.93698 -5.70067,-5.21732 -3.96906,-6.88948 1.71794,-1.65895 1.86069,-1.64928 2.95737,0.2003 0.63377,1.06886 2.81258,3.76886 4.8418,6 l 3.68949,4.05661 4.06051,-3.95295 c 3.25181,-3.16567 4.06051,-3.57683 4.06051,-2.06445 0,1.03867 -0.99173,2.94415 -2.20385,4.23439 l -2.20385,2.34589 4.20385,4.20386 4.20385,4.20385 4.19314,-4.19314 c 3.98891,-3.98891 4.11067,-4.28426 2.5,-6.06404 -0.93123,-1.02899 -1.69314,-2.71123 -1.69314,-3.73832 0,-1.53242 0.6285,-1.25826 3.50348,1.52829 l 3.50349,3.39571 3.99651,-3.90249 c 2.19809,-2.14637 3.99652,-4.44867 3.99652,-5.11621 0,-1.42576 1.97085,-2.28037 3.75,-1.62609 1.86696,0.68656 1.50821,4.21798 -0.5,4.92174 -2.24793,0.78776 -8.25,6.40607 -8.25,7.72252 0,0.55342 1.43827,2.49015 3.19617,4.30383 2.85203,2.94256 2.97639,3.29761 1.15498,3.29761 -1.12264,0 -2.86776,-0.91337 -3.87804,-2.02971 -1.83026,-2.02242 -1.85243,-2.01444 -6.16703,2.22002 l -4.33016,4.24974 9.51204,9.54786 c 7.11653,7.14334 9.51204,10.201 9.51204,12.14131 0,4.51707 -4.04824,2.36654 -13.58946,-7.21909 -4.87786,-4.90057 -9.31977,-8.91013 -9.8709,-8.91013 -0.55114,0 -5.06052,3.99685 -10.02085,8.88189 -5.17271,5.09419 -10.19153,9.15362 -11.76879,9.51906 -2.48801,0.57645 -2.75,0.37505 -2.75,-2.11401 z m 35,-32.75568 c 0,-1.26231 -18.48986,17.0246 -25.24584,24.96874 -2.80644,3.3 1.72579,-0.74437 10.07161,-8.9875 8.34583,-8.24312 15.17423,-15.43468 15.17423,-15.98124 z m 1.03055,21.99945 c -4.63392,-4.65811 -8.66982,-8.22478 -8.96867,-7.92592 -0.49489,0.49489 15.80452,16.25054 16.91604,16.35171 0.26286,0.0239 -3.31346,-3.76768 -7.94737,-8.42579 z m -18.00997,-18.00975 c -2.41772,-2.46346 -4.61967,-4.2552 -4.89324,-3.98164 -0.65588,0.65589 6.98576,8.46068 8.28382,8.46068 0.55289,0 -0.97287,-2.01557 -3.39058,-4.47904 z"
         id="path3002"
         style="fill:#181818" />
      <path
         d="m 135.99998,312.23948 c 0,-1.36133 3.43142,-5.54824 9.5,-11.59158 5.225,-5.20328 9.5,-9.94056 9.5,-10.5273 0,-0.58674 -1.79328,-2.81789 -3.98506,-4.95811 l -3.98505,-3.8913 -2.3294,2.18836 c -1.28116,1.20359 -3.17922,2.18835 -4.21789,2.18835 -1.52647,0 -1.16584,-0.74007 1.8812,-3.86052 l 3.7697,-3.86052 -5.72201,-5.09994 c -4.76229,-4.24456 -5.51598,-5.34819 -4.49363,-6.58004 1.34831,-1.62462 4.08214,-1.08546 4.08214,0.80506 0,0.65454 1.8,2.94772 4,5.09596 l 4,3.9059 4,-3.9059 c 3.2091,-3.13361 4,-3.5325 4,-2.0174 0,1.03867 -0.98476,2.93673 -2.18835,4.21789 l -2.18836,2.3294 3.8913,3.98505 c 2.14022,2.19178 4.38365,3.98506 4.98541,3.98506 0.60176,0 2.84519,-1.79328 4.98541,-3.98506 l 3.8913,-3.98505 -2.18836,-2.3294 c -3.69142,-3.92934 -2.46888,-5.36183 1.40533,-1.64666 l 3.59367,3.44617 5.15633,-5.60122 c 2.83597,-3.08066 5.71882,-5.40566 6.40632,-5.16666 1.47833,0.51392 1.70076,4.26788 0.25288,4.26788 -1.41426,0 -9.00288,7.01196 -9.00288,8.31875 0,0.59732 1.43827,2.56996 3.19617,4.38364 3.55985,3.67284 1.87632,4.65379 -1.89936,1.10672 l -2.3321,-2.19089 -4.4944,4.41091 -4.49439,4.41092 9.51204,9.54786 c 9.87378,9.91097 11.99348,14.01209 7.24229,14.01209 -1.53651,0 -5.32627,-3.06928 -11.73118,-9.50093 l -9.46142,-9.50093 -9.51883,9.38671 c -9.95292,9.81478 -15.01882,12.58294 -15.01882,8.20673 z m 35.42899,-33.49592 c -0.63252,-0.63252 -27.85677,26.37986 -30.64281,30.40434 -1.14226,1.65 5.39737,-4.4037 14.53249,-13.45268 9.13512,-9.04897 16.38477,-16.67722 16.11032,-16.95166 z m 1.57101,23.40434 c -5.20328,-5.225 -9.91939,-9.47846 -10.48025,-9.45212 -1.02313,0.048 18.29735,18.95212 19.36957,18.95212 0.31415,0 -3.68605,-4.275 -8.88932,-9.5 z m -18.97942,-18.97904 c -2.41772,-2.46346 -4.61967,-4.2552 -4.89324,-3.98164 -0.65588,0.65589 6.98576,8.46068 8.28382,8.46068 0.55289,0 -0.97287,-2.01557 -3.39058,-4.47904 z"
         id="path3000"
         style="fill:#0a0a0a" />
      <path
         d="m 135.99998,311.68525 c 0,-0.86727 4.275,-5.83408 9.5,-11.03735 5.225,-5.20328 9.5,-9.94056 9.5,-10.5273 0,-0.58674 -1.79328,-2.81789 -3.98506,-4.95811 l -3.98505,-3.8913 -2.3294,2.18836 c -1.28116,1.20359 -3.17922,2.18835 -4.21789,2.18835 -1.52647,0 -1.16584,-0.74007 1.8812,-3.86052 l 3.7697,-3.86052 -5.67571,-5.05868 c -3.13397,-2.79327 -5.37657,-5.54268 -5.00773,-6.13948 0.94029,-1.52142 4.54994,-1.34986 4.54994,0.21625 0,0.71338 1.8,3.05471 4,5.20295 l 4,3.9059 4,-3.9059 c 3.2091,-3.13361 4,-3.5325 4,-2.0174 0,1.03867 -0.9859,2.93794 -2.19089,4.22059 l -2.19089,2.3321 4.41328,4.49681 4.41328,4.4968 4.48221,-4.48221 4.48221,-4.48221 -2.2046,-2.34669 c -3.69916,-3.93758 -2.49559,-5.38996 1.37889,-1.66396 l 3.58349,3.44617 4.85237,-5.25 c 5.07164,-5.48723 7.98065,-6.67188 7.98065,-3.25 0,1.1 -0.46005,2 -1.02234,2 -0.56229,0 -3.0559,1.87447 -5.54136,4.16548 l -4.51902,4.16548 3.74431,3.83452 c 3.9215,4.01598 2.71155,5.47314 -1.36478,1.64363 l -2.3321,-2.19089 -4.4944,4.41091 -4.49439,4.41092 9.61094,9.64714 c 9.72468,9.7613 11.38769,13.06035 6.90292,13.6939 -1.38231,0.19527 -4.88432,-2.62897 -11.47096,-9.25093 l -9.48117,-9.53202 -9.63599,9.59983 c -6.14151,6.11847 -10.2541,9.47331 -11.34039,9.25093 -1.2059,-0.24685 3.29433,-5.29107 15.38641,-17.24632 9.39995,-9.29358 16.83329,-17.15494 16.51854,-17.46969 -0.31474,-0.31474 -8.4234,7.31479 -18.01924,16.95452 -9.59584,9.63973 -17.44698,16.8172 -17.44698,15.94994 z m 37.5,-9.03735 c -5.47936,-5.5 -10.41248,-10 -10.96248,-10 -0.55,0 3.48312,4.5 8.96248,10 5.47936,5.5 10.41248,10 10.96248,10 0.55,0 -3.48312,-4.5 -8.96248,-10 z m -16.37876,-16.75 c -1.50677,-2.77819 -7.03087,-7.6737 -7.79583,-6.90874 -0.3825,0.3825 1.05413,2.48719 3.19251,4.6771 4.07088,4.16895 6.21878,5.21023 4.60332,2.23164 z"
         id="path2998"
         style="fill:#030303" />
    </g>
  </g>
</svg>
